<svg width="190" height="50" viewBox="0 0 190 50" fill="none" xmlns="http://www.w3.org/2000/svg">
<path d="M44.4444 5.55556V11.1111H33.3333V5.55556H44.4444ZM16.6667 5.55556V22.2222H5.55556V5.55556H16.6667ZM44.4444 27.7778V44.4444H33.3333V27.7778H44.4444ZM16.6667 38.8889V44.4444H5.55556V38.8889H16.6667ZM50 0H27.7778V16.6667H50V0ZM22.2222 0H0V27.7778H22.2222V0ZM50 22.2222H27.7778V50H50V22.2222ZM22.2222 33.3333H0V50H22.2222V33.3333Z" fill="white"/>
<path d="M61.984 33.884C61.248 33.884 60.544 33.78 59.872 33.572C59.2 33.364 58.584 33.052 58.024 32.636C57.464 32.22 56.976 31.716 56.56 31.124C56.144 30.516 55.816 29.812 55.576 29.012L58.624 27.812C58.848 28.676 59.24 29.396 59.8 29.972C60.36 30.532 61.096 30.812 62.008 30.812C62.344 30.812 62.664 30.772 62.968 30.692C63.288 30.596 63.568 30.468 63.808 30.308C64.064 30.132 64.264 29.916 64.408 29.66C64.552 29.404 64.624 29.108 64.624 28.772C64.624 28.452 64.568 28.164 64.456 27.908C64.344 27.652 64.152 27.412 63.88 27.188C63.624 26.964 63.28 26.748 62.848 26.54C62.432 26.332 61.912 26.116 61.288 25.892L60.232 25.508C59.768 25.348 59.296 25.132 58.816 24.86C58.352 24.588 57.928 24.26 57.544 23.876C57.16 23.492 56.84 23.044 56.584 22.532C56.344 22.004 56.224 21.412 56.224 20.756C56.224 20.084 56.352 19.46 56.608 18.884C56.88 18.292 57.256 17.78 57.736 17.348C58.232 16.9 58.816 16.556 59.488 16.316C60.176 16.06 60.936 15.932 61.768 15.932C62.632 15.932 63.376 16.052 64 16.292C64.64 16.516 65.176 16.812 65.608 17.18C66.056 17.532 66.416 17.924 66.688 18.356C66.96 18.788 67.16 19.196 67.288 19.58L64.432 20.78C64.272 20.3 63.976 19.868 63.544 19.484C63.128 19.1 62.552 18.908 61.816 18.908C61.112 18.908 60.528 19.076 60.064 19.412C59.6 19.732 59.368 20.156 59.368 20.684C59.368 21.196 59.592 21.636 60.04 22.004C60.488 22.356 61.2 22.7 62.176 23.036L63.256 23.396C63.944 23.636 64.568 23.916 65.128 24.236C65.704 24.54 66.192 24.908 66.592 25.34C67.008 25.772 67.32 26.268 67.528 26.828C67.752 27.372 67.864 28.004 67.864 28.724C67.864 29.62 67.68 30.396 67.312 31.052C66.96 31.692 66.504 32.22 65.944 32.636C65.384 33.052 64.752 33.364 64.048 33.572C63.344 33.78 62.656 33.884 61.984 33.884ZM75.7167 21.356C76.6287 21.356 77.4607 21.516 78.2127 21.836C78.9807 22.14 79.6367 22.572 80.1807 23.132C80.7407 23.676 81.1727 24.332 81.4767 25.1C81.7967 25.868 81.9567 26.708 81.9567 27.62C81.9567 28.532 81.7967 29.372 81.4767 30.14C81.1727 30.908 80.7407 31.572 80.1807 32.132C79.6367 32.676 78.9807 33.108 78.2127 33.428C77.4607 33.732 76.6287 33.884 75.7167 33.884C74.8047 33.884 73.9647 33.732 73.1967 33.428C72.4447 33.108 71.7887 32.676 71.2287 32.132C70.6847 31.572 70.2527 30.908 69.9327 30.14C69.6287 29.372 69.4767 28.532 69.4767 27.62C69.4767 26.708 69.6287 25.868 69.9327 25.1C70.2527 24.332 70.6847 23.676 71.2287 23.132C71.7887 22.572 72.4447 22.14 73.1967 21.836C73.9647 21.516 74.8047 21.356 75.7167 21.356ZM75.7167 30.98C76.1167 30.98 76.5007 30.908 76.8687 30.764C77.2527 30.604 77.5887 30.38 77.8767 30.092C78.1647 29.804 78.3887 29.452 78.5487 29.036C78.7247 28.62 78.8127 28.148 78.8127 27.62C78.8127 27.092 78.7247 26.62 78.5487 26.204C78.3887 25.788 78.1647 25.436 77.8767 25.148C77.5887 24.86 77.2527 24.644 76.8687 24.5C76.5007 24.34 76.1167 24.26 75.7167 24.26C75.3007 24.26 74.9087 24.34 74.5407 24.5C74.1727 24.644 73.8447 24.86 73.5567 25.148C73.2687 25.436 73.0367 25.788 72.8607 26.204C72.7007 26.62 72.6207 27.092 72.6207 27.62C72.6207 28.148 72.7007 28.62 72.8607 29.036C73.0367 29.452 73.2687 29.804 73.5567 30.092C73.8447 30.38 74.1727 30.604 74.5407 30.764C74.9087 30.908 75.3007 30.98 75.7167 30.98ZM85.4944 20.036C85.2224 20.036 84.9584 19.988 84.7024 19.892C84.4624 19.78 84.2464 19.636 84.0544 19.46C83.8784 19.268 83.7344 19.052 83.6224 18.812C83.5264 18.572 83.4784 18.308 83.4784 18.02C83.4784 17.732 83.5264 17.468 83.6224 17.228C83.7344 16.988 83.8784 16.78 84.0544 16.604C84.2464 16.412 84.4624 16.268 84.7024 16.172C84.9584 16.06 85.2224 16.004 85.4944 16.004C86.0544 16.004 86.5344 16.204 86.9344 16.604C87.3344 16.988 87.5344 17.46 87.5344 18.02C87.5344 18.58 87.3344 19.06 86.9344 19.46C86.5344 19.844 86.0544 20.036 85.4944 20.036ZM83.9344 33.5V21.74H87.0784V33.5H83.9344ZM89.9534 33.5V16.316H93.0974V33.5H89.9534ZM105.976 33.884C105.24 33.884 104.536 33.78 103.864 33.572C103.192 33.364 102.576 33.052 102.016 32.636C101.456 32.22 100.968 31.716 100.552 31.124C100.136 30.516 99.8082 29.812 99.5682 29.012L102.616 27.812C102.84 28.676 103.232 29.396 103.792 29.972C104.352 30.532 105.088 30.812 106 30.812C106.336 30.812 106.656 30.772 106.96 30.692C107.28 30.596 107.56 30.468 107.8 30.308C108.056 30.132 108.256 29.916 108.4 29.66C108.544 29.404 108.616 29.108 108.616 28.772C108.616 28.452 108.56 28.164 108.448 27.908C108.336 27.652 108.144 27.412 107.872 27.188C107.616 26.964 107.272 26.748 106.84 26.54C106.424 26.332 105.904 26.116 105.28 25.892L104.224 25.508C103.76 25.348 103.288 25.132 102.808 24.86C102.344 24.588 101.92 24.26 101.536 23.876C101.152 23.492 100.832 23.044 100.576 22.532C100.336 22.004 100.216 21.412 100.216 20.756C100.216 20.084 100.344 19.46 100.6 18.884C100.872 18.292 101.248 17.78 101.728 17.348C102.224 16.9 102.808 16.556 103.48 16.316C104.168 16.06 104.928 15.932 105.76 15.932C106.624 15.932 107.368 16.052 107.992 16.292C108.632 16.516 109.168 16.812 109.6 17.18C110.048 17.532 110.408 17.924 110.68 18.356C110.952 18.788 111.152 19.196 111.28 19.58L108.424 20.78C108.264 20.3 107.968 19.868 107.536 19.484C107.12 19.1 106.544 18.908 105.808 18.908C105.104 18.908 104.52 19.076 104.056 19.412C103.592 19.732 103.36 20.156 103.36 20.684C103.36 21.196 103.584 21.636 104.032 22.004C104.48 22.356 105.192 22.7 106.168 23.036L107.248 23.396C107.936 23.636 108.56 23.916 109.12 24.236C109.696 24.54 110.184 24.908 110.584 25.34C111 25.772 111.312 26.268 111.52 26.828C111.744 27.372 111.856 28.004 111.856 28.724C111.856 29.62 111.672 30.396 111.304 31.052C110.952 31.692 110.496 32.22 109.936 32.636C109.376 33.052 108.744 33.364 108.04 33.572C107.336 33.78 106.648 33.884 105.976 33.884ZM114.828 24.428H112.764V21.74H114.828V18.14H117.972V21.74H120.852V24.428H117.972V28.988C117.972 29.26 117.996 29.516 118.044 29.756C118.108 29.98 118.22 30.172 118.38 30.332C118.604 30.588 118.924 30.716 119.34 30.716C119.612 30.716 119.828 30.692 119.988 30.644C120.148 30.58 120.3 30.5 120.444 30.404L121.332 33.164C120.964 33.34 120.564 33.468 120.132 33.548C119.716 33.644 119.252 33.692 118.74 33.692C118.148 33.692 117.612 33.604 117.132 33.428C116.668 33.236 116.276 32.98 115.956 32.66C115.204 31.94 114.828 30.916 114.828 29.588V24.428ZM123.164 21.74H126.116V23.372H126.308C126.452 23.084 126.644 22.82 126.884 22.58C127.124 22.34 127.388 22.132 127.676 21.956C127.98 21.78 128.3 21.644 128.636 21.548C128.988 21.452 129.332 21.404 129.668 21.404C130.084 21.404 130.436 21.444 130.724 21.524C131.028 21.604 131.284 21.708 131.492 21.836L130.652 24.692C130.46 24.596 130.244 24.524 130.004 24.476C129.78 24.412 129.5 24.38 129.164 24.38C128.732 24.38 128.34 24.468 127.988 24.644C127.636 24.804 127.332 25.036 127.076 25.34C126.836 25.644 126.644 26.004 126.5 26.42C126.372 26.82 126.308 27.26 126.308 27.74V33.5H123.164V21.74ZM143.347 30.668C142.803 31.628 142.067 32.404 141.139 32.996C140.227 33.588 139.107 33.884 137.779 33.884C136.883 33.884 136.051 33.732 135.283 33.428C134.531 33.108 133.875 32.668 133.315 32.108C132.755 31.548 132.315 30.892 131.995 30.14C131.691 29.372 131.539 28.532 131.539 27.62C131.539 26.772 131.691 25.972 131.995 25.22C132.299 24.452 132.723 23.788 133.267 23.228C133.811 22.652 134.451 22.196 135.187 21.86C135.939 21.524 136.763 21.356 137.659 21.356C138.603 21.356 139.443 21.516 140.179 21.836C140.915 22.14 141.531 22.572 142.027 23.132C142.523 23.676 142.899 24.324 143.155 25.076C143.411 25.828 143.539 26.644 143.539 27.524C143.539 27.636 143.539 27.732 143.539 27.812C143.523 27.908 143.515 27.996 143.515 28.076C143.499 28.156 143.491 28.244 143.491 28.34H134.635C134.699 28.82 134.827 29.236 135.019 29.588C135.227 29.924 135.475 30.212 135.763 30.452C136.067 30.676 136.395 30.844 136.747 30.956C137.099 31.052 137.459 31.1 137.827 31.1C138.547 31.1 139.139 30.94 139.603 30.62C140.083 30.284 140.459 29.868 140.731 29.372L143.347 30.668ZM140.491 26.108C140.475 25.9 140.403 25.668 140.275 25.412C140.163 25.156 139.987 24.916 139.747 24.692C139.523 24.468 139.235 24.284 138.883 24.14C138.547 23.996 138.139 23.924 137.659 23.924C136.987 23.924 136.395 24.116 135.883 24.5C135.371 24.884 135.011 25.42 134.803 26.108H140.491ZM152.912 32.252H152.72C152.352 32.7 151.904 33.084 151.376 33.404C150.864 33.724 150.2 33.884 149.384 33.884C148.776 33.884 148.2 33.78 147.656 33.572C147.128 33.38 146.664 33.108 146.264 32.756C145.864 32.404 145.552 31.98 145.328 31.484C145.104 30.988 144.992 30.444 144.992 29.852C144.992 29.244 145.112 28.7 145.352 28.22C145.592 27.724 145.928 27.3 146.36 26.948C146.792 26.596 147.296 26.332 147.872 26.156C148.464 25.964 149.104 25.868 149.792 25.868C150.56 25.868 151.192 25.932 151.688 26.06C152.184 26.172 152.592 26.292 152.912 26.42V26.06C152.912 25.436 152.664 24.924 152.168 24.524C151.672 24.108 151.056 23.9 150.32 23.9C149.232 23.9 148.312 24.356 147.56 25.268L145.28 23.708C146.528 22.14 148.232 21.356 150.392 21.356C152.216 21.356 153.608 21.788 154.568 22.652C155.528 23.5 156.008 24.764 156.008 26.444V33.5H152.912V32.252ZM152.912 28.724C152.544 28.548 152.16 28.412 151.76 28.316C151.376 28.204 150.952 28.148 150.488 28.148C149.736 28.148 149.152 28.316 148.736 28.652C148.336 28.972 148.136 29.372 148.136 29.852C148.136 30.332 148.328 30.716 148.712 31.004C149.112 31.292 149.568 31.436 150.08 31.436C150.496 31.436 150.88 31.364 151.232 31.22C151.584 31.06 151.88 30.86 152.12 30.62C152.376 30.364 152.568 30.076 152.696 29.756C152.84 29.42 152.912 29.076 152.912 28.724ZM158.508 21.74H161.46V23.276H161.652C162.02 22.7 162.516 22.236 163.14 21.884C163.78 21.532 164.484 21.356 165.252 21.356C166.148 21.356 166.9 21.564 167.508 21.98C168.116 22.396 168.548 22.908 168.804 23.516C169.172 22.924 169.692 22.42 170.364 22.004C171.036 21.572 171.852 21.356 172.812 21.356C173.532 21.356 174.156 21.476 174.684 21.716C175.212 21.94 175.644 22.26 175.98 22.676C176.332 23.092 176.596 23.596 176.772 24.188C176.948 24.764 177.036 25.396 177.036 26.084V33.5H173.892V26.66C173.892 25.06 173.236 24.26 171.924 24.26C171.508 24.26 171.14 24.356 170.82 24.548C170.5 24.724 170.228 24.972 170.004 25.292C169.796 25.596 169.628 25.964 169.5 26.396C169.388 26.828 169.332 27.292 169.332 27.788V33.5H166.188V26.66C166.188 25.06 165.5 24.26 164.124 24.26C163.724 24.26 163.372 24.356 163.068 24.548C162.764 24.724 162.508 24.972 162.3 25.292C162.092 25.596 161.932 25.964 161.82 26.396C161.708 26.828 161.652 27.292 161.652 27.788V33.5H158.508V21.74ZM184.164 33.884C183.396 33.884 182.708 33.788 182.1 33.596C181.508 33.404 180.988 33.156 180.54 32.852C180.108 32.532 179.74 32.172 179.436 31.772C179.132 31.356 178.9 30.94 178.74 30.524L181.548 29.324C181.82 29.932 182.18 30.388 182.628 30.692C183.092 30.98 183.604 31.124 184.164 31.124C184.74 31.124 185.196 31.02 185.532 30.812C185.868 30.604 186.036 30.356 186.036 30.068C186.036 29.748 185.892 29.492 185.604 29.3C185.332 29.092 184.852 28.908 184.164 28.748L182.508 28.388C182.14 28.308 181.756 28.18 181.356 28.004C180.972 27.828 180.62 27.604 180.3 27.332C179.98 27.06 179.716 26.732 179.508 26.348C179.3 25.964 179.196 25.516 179.196 25.004C179.196 24.428 179.316 23.916 179.556 23.468C179.812 23.02 180.156 22.644 180.588 22.34C181.02 22.02 181.524 21.78 182.1 21.62C182.692 21.444 183.324 21.356 183.996 21.356C185.116 21.356 186.116 21.58 186.996 22.028C187.876 22.46 188.524 23.156 188.94 24.116L186.228 25.22C186.004 24.756 185.676 24.42 185.244 24.212C184.812 24.004 184.38 23.9 183.948 23.9C183.5 23.9 183.108 23.996 182.772 24.188C182.436 24.364 182.268 24.596 182.268 24.884C182.268 25.156 182.404 25.372 182.676 25.532C182.964 25.692 183.348 25.836 183.828 25.964L185.628 26.396C186.828 26.684 187.716 27.148 188.292 27.788C188.884 28.412 189.18 29.156 189.18 30.02C189.18 30.532 189.06 31.02 188.82 31.484C188.58 31.948 188.236 32.364 187.788 32.732C187.356 33.084 186.828 33.364 186.204 33.572C185.596 33.78 184.916 33.884 184.164 33.884Z" fill="white"/>
</svg>
