<svg width="198" height="50" viewBox="0 0 198 50" fill="none" xmlns="http://www.w3.org/2000/svg">
<path d="M44.4444 5.55556V11.1111H33.3333V5.55556H44.4444ZM16.6667 5.55556V22.2222H5.55556V5.55556H16.6667ZM44.4444 27.7778V44.4444H33.3333V27.7778H44.4444ZM16.6667 38.8889V44.4444H5.55556V38.8889H16.6667ZM50 0H27.7778V16.6667H50V0ZM22.2222 0H0V27.7778H22.2222V0ZM50 22.2222H27.7778V50H50V22.2222ZM22.2222 33.3333H0V50H22.2222V33.3333Z" fill="#09871E"/>
<path d="M60.984 33.884C60.248 33.884 59.544 33.78 58.872 33.572C58.2 33.364 57.584 33.052 57.024 32.636C56.464 32.22 55.976 31.716 55.56 31.124C55.144 30.516 54.816 29.812 54.576 29.012L57.624 27.812C57.848 28.676 58.24 29.396 58.8 29.972C59.36 30.532 60.096 30.812 61.008 30.812C61.344 30.812 61.664 30.772 61.968 30.692C62.288 30.596 62.568 30.468 62.808 30.308C63.064 30.132 63.264 29.916 63.408 29.66C63.552 29.404 63.624 29.108 63.624 28.772C63.624 28.452 63.568 28.164 63.456 27.908C63.344 27.652 63.152 27.412 62.88 27.188C62.624 26.964 62.28 26.748 61.848 26.54C61.432 26.332 60.912 26.116 60.288 25.892L59.232 25.508C58.768 25.348 58.296 25.132 57.816 24.86C57.352 24.588 56.928 24.26 56.544 23.876C56.16 23.492 55.84 23.044 55.584 22.532C55.344 22.004 55.224 21.412 55.224 20.756C55.224 20.084 55.352 19.46 55.608 18.884C55.88 18.292 56.256 17.78 56.736 17.348C57.232 16.9 57.816 16.556 58.488 16.316C59.176 16.06 59.936 15.932 60.768 15.932C61.632 15.932 62.376 16.052 63 16.292C63.64 16.516 64.176 16.812 64.608 17.18C65.056 17.532 65.416 17.924 65.688 18.356C65.96 18.788 66.16 19.196 66.288 19.58L63.432 20.78C63.272 20.3 62.976 19.868 62.544 19.484C62.128 19.1 61.552 18.908 60.816 18.908C60.112 18.908 59.528 19.076 59.064 19.412C58.6 19.732 58.368 20.156 58.368 20.684C58.368 21.196 58.592 21.636 59.04 22.004C59.488 22.356 60.2 22.7 61.176 23.036L62.256 23.396C62.944 23.636 63.568 23.916 64.128 24.236C64.704 24.54 65.192 24.908 65.592 25.34C66.008 25.772 66.32 26.268 66.528 26.828C66.752 27.372 66.864 28.004 66.864 28.724C66.864 29.62 66.68 30.396 66.312 31.052C65.96 31.692 65.504 32.22 64.944 32.636C64.384 33.052 63.752 33.364 63.048 33.572C62.344 33.78 61.656 33.884 60.984 33.884ZM74.7167 21.356C75.6287 21.356 76.4607 21.516 77.2127 21.836C77.9807 22.14 78.6367 22.572 79.1807 23.132C79.7407 23.676 80.1727 24.332 80.4767 25.1C80.7967 25.868 80.9567 26.708 80.9567 27.62C80.9567 28.532 80.7967 29.372 80.4767 30.14C80.1727 30.908 79.7407 31.572 79.1807 32.132C78.6367 32.676 77.9807 33.108 77.2127 33.428C76.4607 33.732 75.6287 33.884 74.7167 33.884C73.8047 33.884 72.9647 33.732 72.1967 33.428C71.4447 33.108 70.7887 32.676 70.2287 32.132C69.6847 31.572 69.2527 30.908 68.9327 30.14C68.6287 29.372 68.4767 28.532 68.4767 27.62C68.4767 26.708 68.6287 25.868 68.9327 25.1C69.2527 24.332 69.6847 23.676 70.2287 23.132C70.7887 22.572 71.4447 22.14 72.1967 21.836C72.9647 21.516 73.8047 21.356 74.7167 21.356ZM74.7167 30.98C75.1167 30.98 75.5007 30.908 75.8687 30.764C76.2527 30.604 76.5887 30.38 76.8767 30.092C77.1647 29.804 77.3887 29.452 77.5487 29.036C77.7247 28.62 77.8127 28.148 77.8127 27.62C77.8127 27.092 77.7247 26.62 77.5487 26.204C77.3887 25.788 77.1647 25.436 76.8767 25.148C76.5887 24.86 76.2527 24.644 75.8687 24.5C75.5007 24.34 75.1167 24.26 74.7167 24.26C74.3007 24.26 73.9087 24.34 73.5407 24.5C73.1727 24.644 72.8447 24.86 72.5567 25.148C72.2687 25.436 72.0367 25.788 71.8607 26.204C71.7007 26.62 71.6207 27.092 71.6207 27.62C71.6207 28.148 71.7007 28.62 71.8607 29.036C72.0367 29.452 72.2687 29.804 72.5567 30.092C72.8447 30.38 73.1727 30.604 73.5407 30.764C73.9087 30.908 74.3007 30.98 74.7167 30.98ZM84.4944 20.036C84.2224 20.036 83.9584 19.988 83.7024 19.892C83.4624 19.78 83.2464 19.636 83.0544 19.46C82.8784 19.268 82.7344 19.052 82.6224 18.812C82.5264 18.572 82.4784 18.308 82.4784 18.02C82.4784 17.732 82.5264 17.468 82.6224 17.228C82.7344 16.988 82.8784 16.78 83.0544 16.604C83.2464 16.412 83.4624 16.268 83.7024 16.172C83.9584 16.06 84.2224 16.004 84.4944 16.004C85.0544 16.004 85.5344 16.204 85.9344 16.604C86.3344 16.988 86.5344 17.46 86.5344 18.02C86.5344 18.58 86.3344 19.06 85.9344 19.46C85.5344 19.844 85.0544 20.036 84.4944 20.036ZM82.9344 33.5V21.74H86.0784V33.5H82.9344ZM88.9534 33.5V16.316H92.0974V33.5H88.9534ZM104.976 33.884C104.24 33.884 103.536 33.78 102.864 33.572C102.192 33.364 101.576 33.052 101.016 32.636C100.456 32.22 99.9682 31.716 99.5522 31.124C99.1362 30.516 98.8082 29.812 98.5682 29.012L101.616 27.812C101.84 28.676 102.232 29.396 102.792 29.972C103.352 30.532 104.088 30.812 105 30.812C105.336 30.812 105.656 30.772 105.96 30.692C106.28 30.596 106.56 30.468 106.8 30.308C107.056 30.132 107.256 29.916 107.4 29.66C107.544 29.404 107.616 29.108 107.616 28.772C107.616 28.452 107.56 28.164 107.448 27.908C107.336 27.652 107.144 27.412 106.872 27.188C106.616 26.964 106.272 26.748 105.84 26.54C105.424 26.332 104.904 26.116 104.28 25.892L103.224 25.508C102.76 25.348 102.288 25.132 101.808 24.86C101.344 24.588 100.92 24.26 100.536 23.876C100.152 23.492 99.8322 23.044 99.5762 22.532C99.3362 22.004 99.2162 21.412 99.2162 20.756C99.2162 20.084 99.3442 19.46 99.6002 18.884C99.8722 18.292 100.248 17.78 100.728 17.348C101.224 16.9 101.808 16.556 102.48 16.316C103.168 16.06 103.928 15.932 104.76 15.932C105.624 15.932 106.368 16.052 106.992 16.292C107.632 16.516 108.168 16.812 108.6 17.18C109.048 17.532 109.408 17.924 109.68 18.356C109.952 18.788 110.152 19.196 110.28 19.58L107.424 20.78C107.264 20.3 106.968 19.868 106.536 19.484C106.12 19.1 105.544 18.908 104.808 18.908C104.104 18.908 103.52 19.076 103.056 19.412C102.592 19.732 102.36 20.156 102.36 20.684C102.36 21.196 102.584 21.636 103.032 22.004C103.48 22.356 104.192 22.7 105.168 23.036L106.248 23.396C106.936 23.636 107.56 23.916 108.12 24.236C108.696 24.54 109.184 24.908 109.584 25.34C110 25.772 110.312 26.268 110.52 26.828C110.744 27.372 110.856 28.004 110.856 28.724C110.856 29.62 110.672 30.396 110.304 31.052C109.952 31.692 109.496 32.22 108.936 32.636C108.376 33.052 107.744 33.364 107.04 33.572C106.336 33.78 105.648 33.884 104.976 33.884ZM113.828 24.428H111.764V21.74H113.828V18.14H116.972V21.74H119.852V24.428H116.972V28.988C116.972 29.26 116.996 29.516 117.044 29.756C117.108 29.98 117.22 30.172 117.38 30.332C117.604 30.588 117.924 30.716 118.34 30.716C118.612 30.716 118.828 30.692 118.988 30.644C119.148 30.58 119.3 30.5 119.444 30.404L120.332 33.164C119.964 33.34 119.564 33.468 119.132 33.548C118.716 33.644 118.252 33.692 117.74 33.692C117.148 33.692 116.612 33.604 116.132 33.428C115.668 33.236 115.276 32.98 114.956 32.66C114.204 31.94 113.828 30.916 113.828 29.588V24.428ZM122.164 21.74H125.116V23.372H125.308C125.452 23.084 125.644 22.82 125.884 22.58C126.124 22.34 126.388 22.132 126.676 21.956C126.98 21.78 127.3 21.644 127.636 21.548C127.988 21.452 128.332 21.404 128.668 21.404C129.084 21.404 129.436 21.444 129.724 21.524C130.028 21.604 130.284 21.708 130.492 21.836L129.652 24.692C129.46 24.596 129.244 24.524 129.004 24.476C128.78 24.412 128.5 24.38 128.164 24.38C127.732 24.38 127.34 24.468 126.988 24.644C126.636 24.804 126.332 25.036 126.076 25.34C125.836 25.644 125.644 26.004 125.5 26.42C125.372 26.82 125.308 27.26 125.308 27.74V33.5H122.164V21.74ZM142.347 30.668C141.803 31.628 141.067 32.404 140.139 32.996C139.227 33.588 138.107 33.884 136.779 33.884C135.883 33.884 135.051 33.732 134.283 33.428C133.531 33.108 132.875 32.668 132.315 32.108C131.755 31.548 131.315 30.892 130.995 30.14C130.691 29.372 130.539 28.532 130.539 27.62C130.539 26.772 130.691 25.972 130.995 25.22C131.299 24.452 131.723 23.788 132.267 23.228C132.811 22.652 133.451 22.196 134.187 21.86C134.939 21.524 135.763 21.356 136.659 21.356C137.603 21.356 138.443 21.516 139.179 21.836C139.915 22.14 140.531 22.572 141.027 23.132C141.523 23.676 141.899 24.324 142.155 25.076C142.411 25.828 142.539 26.644 142.539 27.524C142.539 27.636 142.539 27.732 142.539 27.812C142.523 27.908 142.515 27.996 142.515 28.076C142.499 28.156 142.491 28.244 142.491 28.34H133.635C133.699 28.82 133.827 29.236 134.019 29.588C134.227 29.924 134.475 30.212 134.763 30.452C135.067 30.676 135.395 30.844 135.747 30.956C136.099 31.052 136.459 31.1 136.827 31.1C137.547 31.1 138.139 30.94 138.603 30.62C139.083 30.284 139.459 29.868 139.731 29.372L142.347 30.668ZM139.491 26.108C139.475 25.9 139.403 25.668 139.275 25.412C139.163 25.156 138.987 24.916 138.747 24.692C138.523 24.468 138.235 24.284 137.883 24.14C137.547 23.996 137.139 23.924 136.659 23.924C135.987 23.924 135.395 24.116 134.883 24.5C134.371 24.884 134.011 25.42 133.803 26.108H139.491ZM151.912 32.252H151.72C151.352 32.7 150.904 33.084 150.376 33.404C149.864 33.724 149.2 33.884 148.384 33.884C147.776 33.884 147.2 33.78 146.656 33.572C146.128 33.38 145.664 33.108 145.264 32.756C144.864 32.404 144.552 31.98 144.328 31.484C144.104 30.988 143.992 30.444 143.992 29.852C143.992 29.244 144.112 28.7 144.352 28.22C144.592 27.724 144.928 27.3 145.36 26.948C145.792 26.596 146.296 26.332 146.872 26.156C147.464 25.964 148.104 25.868 148.792 25.868C149.56 25.868 150.192 25.932 150.688 26.06C151.184 26.172 151.592 26.292 151.912 26.42V26.06C151.912 25.436 151.664 24.924 151.168 24.524C150.672 24.108 150.056 23.9 149.32 23.9C148.232 23.9 147.312 24.356 146.56 25.268L144.28 23.708C145.528 22.14 147.232 21.356 149.392 21.356C151.216 21.356 152.608 21.788 153.568 22.652C154.528 23.5 155.008 24.764 155.008 26.444V33.5H151.912V32.252ZM151.912 28.724C151.544 28.548 151.16 28.412 150.76 28.316C150.376 28.204 149.952 28.148 149.488 28.148C148.736 28.148 148.152 28.316 147.736 28.652C147.336 28.972 147.136 29.372 147.136 29.852C147.136 30.332 147.328 30.716 147.712 31.004C148.112 31.292 148.568 31.436 149.08 31.436C149.496 31.436 149.88 31.364 150.232 31.22C150.584 31.06 150.88 30.86 151.12 30.62C151.376 30.364 151.568 30.076 151.696 29.756C151.84 29.42 151.912 29.076 151.912 28.724ZM157.508 21.74H160.46V23.276H160.652C161.02 22.7 161.516 22.236 162.14 21.884C162.78 21.532 163.484 21.356 164.252 21.356C165.148 21.356 165.9 21.564 166.508 21.98C167.116 22.396 167.548 22.908 167.804 23.516C168.172 22.924 168.692 22.42 169.364 22.004C170.036 21.572 170.852 21.356 171.812 21.356C172.532 21.356 173.156 21.476 173.684 21.716C174.212 21.94 174.644 22.26 174.98 22.676C175.332 23.092 175.596 23.596 175.772 24.188C175.948 24.764 176.036 25.396 176.036 26.084V33.5H172.892V26.66C172.892 25.06 172.236 24.26 170.924 24.26C170.508 24.26 170.14 24.356 169.82 24.548C169.5 24.724 169.228 24.972 169.004 25.292C168.796 25.596 168.628 25.964 168.5 26.396C168.388 26.828 168.332 27.292 168.332 27.788V33.5H165.188V26.66C165.188 25.06 164.5 24.26 163.124 24.26C162.724 24.26 162.372 24.356 162.068 24.548C161.764 24.724 161.508 24.972 161.3 25.292C161.092 25.596 160.932 25.964 160.82 26.396C160.708 26.828 160.652 27.292 160.652 27.788V33.5H157.508V21.74ZM183.164 33.884C182.396 33.884 181.708 33.788 181.1 33.596C180.508 33.404 179.988 33.156 179.54 32.852C179.108 32.532 178.74 32.172 178.436 31.772C178.132 31.356 177.9 30.94 177.74 30.524L180.548 29.324C180.82 29.932 181.18 30.388 181.628 30.692C182.092 30.98 182.604 31.124 183.164 31.124C183.74 31.124 184.196 31.02 184.532 30.812C184.868 30.604 185.036 30.356 185.036 30.068C185.036 29.748 184.892 29.492 184.604 29.3C184.332 29.092 183.852 28.908 183.164 28.748L181.508 28.388C181.14 28.308 180.756 28.18 180.356 28.004C179.972 27.828 179.62 27.604 179.3 27.332C178.98 27.06 178.716 26.732 178.508 26.348C178.3 25.964 178.196 25.516 178.196 25.004C178.196 24.428 178.316 23.916 178.556 23.468C178.812 23.02 179.156 22.644 179.588 22.34C180.02 22.02 180.524 21.78 181.1 21.62C181.692 21.444 182.324 21.356 182.996 21.356C184.116 21.356 185.116 21.58 185.996 22.028C186.876 22.46 187.524 23.156 187.94 24.116L185.228 25.22C185.004 24.756 184.676 24.42 184.244 24.212C183.812 24.004 183.38 23.9 182.948 23.9C182.5 23.9 182.108 23.996 181.772 24.188C181.436 24.364 181.268 24.596 181.268 24.884C181.268 25.156 181.404 25.372 181.676 25.532C181.964 25.692 182.348 25.836 182.828 25.964L184.628 26.396C185.828 26.684 186.716 27.148 187.292 27.788C187.884 28.412 188.18 29.156 188.18 30.02C188.18 30.532 188.06 31.02 187.82 31.484C187.58 31.948 187.236 32.364 186.788 32.732C186.356 33.084 185.828 33.364 185.204 33.572C184.596 33.78 183.916 33.884 183.164 33.884Z" fill="#09871E"/>
</svg>
